<svg preserveAspectRatio="none" width="100%" height="100%" overflow="visible" style="display: block;" viewBox="0 0 54.8571 32" fill="none" xmlns="http://www.w3.org/2000/svg">
<g id="logo">
<path id="Vector" d="M1.48326 1.57029C0.952338 4.96531 -1.88465 24.7891 2.06079 31.1191C2.29345 31.5084 2.66103 31.7957 3.09165 31.9249C3.52227 32.054 3.98493 32.0157 4.38914 31.8174C4.81146 31.6088 5.13551 31.2398 5.2909 30.7905C7.55237 24.2406 10.4431 17.9317 13.9214 11.9546C19.2225 2.91761 21.1456 1.43679 19.338 0.364674C18.2681 -0.0625275 18.2053 -0.097442 17.9682 0.171613C17.7311 0.440668 6.27777 17.1611 4.03452 24.7316C4.03452 24.7316 3.77514 24.4379 3.81567 21.1579C3.8562 17.8779 5.34562 3.37562 4.17637 1.77156C3.65153 1.15541 2.77409 0.974668 2.17427 0.972615C2.0075 0.971647 1.84595 1.03148 1.7191 1.1412C1.59224 1.25092 1.50854 1.40321 1.48326 1.57029V1.57029Z" fill="var(--fill-0, #2A2D7C)"/>
<path id="Vector_2" d="M28.1626 8.19958C28.1626 8.19958 27.0554 7.52877 26.3227 8.64678C25.5901 9.7648 21.0742 16.477 23.2555 19.7876C23.338 19.9066 23.4323 20.0169 23.537 20.1168C24.5718 21.125 25.0954 21.6199 26.3662 20.3466C27.699 19.0091 29.7603 15.9035 30.1743 15.5847C29.9011 16.7958 29.0732 20.5143 30.9462 22.0174C32.3805 23.1312 32.6019 22.7192 33.6616 21.4853C34.6612 20.3134 38.5293 15.6592 39.9283 12.6903C40.001 12.5389 40.0182 12.3669 39.9769 12.2042C39.9357 12.0415 39.8387 11.8984 39.7028 11.8C39.4689 11.6364 39.1833 11.5122 38.9391 11.593C38.4693 11.7648 33.2394 19.4915 32.1673 20.1416C32.5585 17.9967 32.9744 15.8165 35.2717 10.5267C35.3328 10.385 35.3618 10.2316 35.3566 10.0774C35.3255 9.09192 35.1641 8.66541 33.5188 8.62815C33.4135 8.62481 33.3089 8.6448 33.2122 8.68668C33.1156 8.72856 33.0295 8.79129 32.96 8.87038C31.9852 9.99047 28.7773 14.4604 25.5942 17.7503C26.0888 15.9801 27.4196 12.1209 29.1001 9.66127C29.3236 9.15817 29.1374 8.5267 28.1626 8.19958Z" fill="var(--fill-0, #2A2D7C)"/>
<path id="Vector_3" d="M20.9606 7.36115C20.9606 7.36115 20.2398 7.19584 19.9557 7.66932C19.7008 8.09587 14.4694 15.6451 15.4597 20.6881C15.5541 21.2252 15.7846 21.7306 16.1301 22.1584C16.4757 22.5862 16.9254 22.9226 17.4382 23.1372C18.0775 23.3882 18.7105 23.4311 19.0908 23.0698C19.7802 22.4127 26.3738 13.645 26.6684 11.6409C26.2798 11.2327 25.7241 10.6919 24.6105 12.1287C23.7957 13.1797 18.6102 19.935 18.1673 20.684C18.5496 18.5942 18.1151 16.5002 22.7365 9.12651C23.1543 8.67548 22.795 8.16322 22.2371 7.88974C21.8216 7.69148 21.3955 7.51504 20.9606 7.36115Z" fill="var(--fill-0, #2A2D7C)"/>
<path id="Vector_4" d="M24.5201 0.0804491C24.1702 -0.0376217 23.7903 -0.0253964 23.4484 0.114937C23.1066 0.25527 22.8251 0.514545 22.6544 0.846333C21.803 2.38647 19.9744 5.47721 20.9351 6.28704C21.4142 6.71548 21.9542 7.0682 22.5369 7.33333C22.5369 7.33333 22.1885 5.62997 26.4683 1.75242C26.7941 1.2774 26.7879 0.846333 25.8499 0.519891C24.9119 0.193448 24.5201 0.0804491 24.5201 0.0804491Z" fill="var(--fill-0, #2A2D7C)"/>
<g id="Logo">
<path id="Vector_5" d="M49.8524 15.321L40.6677 13.3331L50.0083 13.769C50.0984 13.773 50.1869 13.7973 50.2688 13.8404C50.3507 13.8834 50.4243 13.9445 50.4855 14.0199C50.5467 14.0954 50.5942 14.1839 50.6254 14.2803C50.6566 14.3767 50.6708 14.4792 50.6672 14.5819C50.6636 14.6845 50.6423 14.7854 50.6045 14.8787C50.5667 14.9719 50.5131 15.0558 50.4469 15.1255C50.3806 15.1952 50.3029 15.2494 50.2183 15.2849C50.1337 15.3204 50.0437 15.3366 49.9536 15.3325C49.9196 15.3322 49.8857 15.3283 49.8524 15.321V15.321Z" fill="var(--fill-0, #F57F20)"/>
<path id="Vector_6" d="M48.9338 18.5824L40.6677 13.9999L49.5627 17.4009C49.7362 17.4672 49.8742 17.5948 49.9465 17.7557C50.0187 17.9166 50.0193 18.0976 49.948 18.2589C49.8768 18.4202 49.7395 18.5486 49.5665 18.6158C49.3935 18.683 49.1989 18.6835 49.0254 18.6172C48.9939 18.6079 48.9633 18.5962 48.9338 18.5824V18.5824Z" fill="var(--fill-0, #F57F20)"/>
<path id="Vector_7" d="M50.0474 11.2752L40.6677 12.6666L49.7202 10.0413C49.8091 10.0106 49.9039 9.99672 49.9989 10.0005C50.0938 10.0043 50.1869 10.0257 50.2725 10.0634C50.3581 10.1011 50.4344 10.1543 50.4967 10.2197C50.5589 10.2852 50.6059 10.3615 50.6348 10.444C50.6636 10.5266 50.6737 10.6136 50.6644 10.6998C50.6551 10.7861 50.6266 10.8696 50.5807 10.9455C50.5348 11.0213 50.4724 11.0879 50.3973 11.141C50.3222 11.1941 50.236 11.2328 50.1441 11.2546C50.1123 11.2631 50.08 11.27 50.0474 11.2752V11.2752Z" fill="var(--fill-0, #F57F20)"/>
<path id="Vector_8" d="M48.9958 7.30555L40.6677 11.9999L48.2248 6.13041C48.3729 6.02467 48.5558 5.98068 48.7354 6.00766C48.915 6.03464 49.0772 6.1305 49.1881 6.27515C49.299 6.4198 49.3499 6.60202 49.3303 6.78363C49.3106 6.96524 49.2219 7.13215 49.0826 7.2494C49.0555 7.27075 49.0264 7.28955 48.9958 7.30555V7.30555Z" fill="var(--fill-0, #F57F20)"/>
<path id="Vector_9" d="M47.1442 3.87409L40.6677 11.333L45.9757 3.02164C46.0255 2.93817 46.0917 2.86548 46.1704 2.80788C46.249 2.75028 46.3386 2.70893 46.4337 2.6863C46.5287 2.66367 46.6274 2.66021 46.7239 2.67613C46.8204 2.69205 46.9126 2.72702 46.9952 2.77897C47.0778 2.83093 47.149 2.8988 47.2046 2.97857C47.2603 3.05834 47.2992 3.14839 47.3191 3.24336C47.339 3.33834 47.3395 3.43631 47.3205 3.53148C47.3015 3.62664 47.2635 3.71706 47.2086 3.79737C47.1893 3.81868 47.1657 3.84851 47.1442 3.87409Z" fill="var(--fill-0, #F57F20)"/>
<path id="Vector_10" d="M42.6263 2.27064L39.3326 11.3331L41.3185 1.87196C41.362 1.69236 41.4707 1.53743 41.6217 1.43993C41.7728 1.34243 41.9542 1.31001 42.1278 1.34953C42.3013 1.38905 42.4533 1.49741 42.5516 1.65169C42.6499 1.80596 42.6868 1.99407 42.6545 2.17621C42.6465 2.20349 42.6364 2.23916 42.6263 2.27064Z" fill="var(--fill-0, #F57F20)"/>
<path id="Vector_11" d="M38.6595 1.35863L38.549 10.6663L37.3361 1.44127C37.3245 1.3522 37.3301 1.26166 37.3527 1.17482C37.3753 1.08798 37.4144 1.00653 37.4678 0.935127C37.5211 0.863726 37.5878 0.80377 37.6638 0.758682C37.7399 0.713594 37.8239 0.684257 37.911 0.672346C37.9982 0.660436 38.0868 0.666184 38.1718 0.689264C38.2567 0.712344 38.3364 0.752303 38.4063 0.80686C38.4762 0.861417 38.5348 0.929503 38.5789 1.00723C38.6231 1.08496 38.6518 1.17081 38.6634 1.25987C38.664 1.29284 38.6627 1.32582 38.6595 1.35863V1.35863Z" fill="var(--fill-0, #F57F20)"/>
<path id="Vector_12" d="M34.7272 2.42038L37.9969 11.3332L33.3909 2.97232C33.3174 2.81148 33.3104 2.63012 33.3715 2.46462C33.4326 2.29912 33.5572 2.16172 33.7203 2.07998C33.8834 1.99824 34.0729 1.97821 34.2509 2.0239C34.4289 2.06959 34.5821 2.17763 34.6799 2.32634C34.6984 2.35638 34.7142 2.38783 34.7272 2.42038V2.42038Z" fill="var(--fill-0, #F57F20)"/>
</g>
<path id="Vector_13" d="M50.665 27.293L45.5146 26.6268C43.7911 26.4468 42.0695 26.2733 40.35 26.1065L37.7627 25.9231C36.9002 25.866 36.0418 25.7852 35.1773 25.7615L32.5899 25.6551L31.9446 25.6275C31.7295 25.6275 31.5144 25.6275 31.2973 25.6275L30.0066 25.6137L28.714 25.5999C28.4989 25.5999 28.2838 25.5999 28.0686 25.5999L27.4233 25.6137L24.8441 25.6689L22.2729 25.8029C21.8447 25.8207 21.4186 25.864 20.9924 25.8995L19.714 26.0118C19.511 26.0316 19.2878 26.0453 19.0768 26.069L18.4396 26.1459L17.1733 26.2996L16.8547 26.341L16.5401 26.3883L15.911 26.4888L15.2819 26.5854C15.079 26.617 14.8639 26.6524 14.6569 26.6938L13.415 26.9323C13.0091 27.021 12.6033 27.1294 12.1974 27.2102C11.9945 27.2536 11.7915 27.3147 11.5886 27.3659C11.3857 27.4172 11.1827 27.4704 10.992 27.5276L10.4116 27.7069C10.3162 27.7365 10.229 27.768 10.1376 27.7996L10.0017 27.8469L9.89818 27.8883L9.8576 27.904C9.52526 28.0347 9.15307 28.0318 8.82293 27.896C8.49279 27.7601 8.23172 27.5025 8.09717 27.1797C7.96262 26.8569 7.9656 26.4954 8.10546 26.1747C8.24532 25.8541 8.5106 25.6005 8.84295 25.4698L8.92817 25.4402L9.1311 25.3752L9.30563 25.3279C9.41927 25.2964 9.53697 25.2609 9.65061 25.2333L10.3223 25.0717C10.5455 25.0224 10.7647 24.983 10.9879 24.9357C11.2111 24.8884 11.4303 24.8411 11.6515 24.8095C12.0939 24.7386 12.5343 24.6617 12.9746 24.5966L14.2977 24.4252C14.5169 24.3956 14.7381 24.3739 14.9593 24.3542L15.6188 24.2951L16.2783 24.234L16.6071 24.2024L16.9379 24.1827L18.2569 24.1059L18.9164 24.0684C19.1356 24.0684 19.3548 24.0566 19.5739 24.0487L20.891 24.0191C21.3293 24.0073 21.7676 23.9935 22.206 24.0034L24.8299 24.031L27.4477 24.1394L28.1031 24.167C28.3203 24.1768 28.5374 24.1985 28.7566 24.2123L30.0594 24.3069L31.3622 24.4035C31.5794 24.4212 31.7965 24.433 32.0136 24.4547L32.663 24.5217L35.2585 24.7937C36.125 24.8726 36.9834 25.0086 37.8459 25.119L40.4272 25.4678C42.1399 25.7464 43.8513 26.0289 45.5613 26.3154L50.665 27.293Z" fill="var(--fill-0, #2A2D7C)"/>
</g>
</svg>
