<svg preserveAspectRatio="none" width="100%" height="100%" overflow="visible" style="display: block;" viewBox="0 0 69.6677 44" fill="none" xmlns="http://www.w3.org/2000/svg">
<g id="Logo">
<g id="Vector">
<path d="M68.5466 21.0666L55.9177 18.3333L68.7609 18.9326C68.8848 18.9382 69.0066 18.9716 69.1192 19.0308C69.2318 19.09 69.333 19.1739 69.4172 19.2777C69.5013 19.3815 69.5667 19.5031 69.6095 19.6357C69.6524 19.7682 69.6719 19.9091 69.667 20.0503C69.662 20.1915 69.6327 20.3301 69.5808 20.4584C69.5288 20.5867 69.4551 20.702 69.364 20.7978C69.2729 20.8937 69.1661 20.9682 69.0497 21.017C68.9334 21.0658 68.8097 21.088 68.6858 21.0824C68.639 21.082 68.5925 21.0767 68.5466 21.0666Z" fill="var(--fill-0, #F57F20)"/>
<path d="M67.2835 25.5508L55.9177 19.2499L68.1483 23.9263C68.3868 24.0174 68.5766 24.1929 68.676 24.4142C68.7753 24.6354 68.7761 24.8843 68.6781 25.1061C68.5801 25.3279 68.3914 25.5044 68.1535 25.5968C67.9156 25.6891 67.648 25.6899 67.4095 25.5988C67.3662 25.5859 67.3241 25.5699 67.2835 25.5508Z" fill="var(--fill-0, #F57F20)"/>
<path d="M68.8147 15.5035L55.9177 17.4167L68.3649 13.8069C68.4871 13.7647 68.6175 13.7456 68.748 13.7508C68.8786 13.7561 69.0066 13.7855 69.1243 13.8373C69.242 13.8891 69.3468 13.9623 69.4325 14.0522C69.5181 14.1422 69.5827 14.2472 69.6224 14.3607C69.662 14.4742 69.6759 14.5939 69.6631 14.7124C69.6503 14.831 69.6111 14.9459 69.548 15.0502C69.4849 15.1545 69.3991 15.246 69.2958 15.319C69.1926 15.3921 69.0741 15.4452 68.9476 15.4752C68.904 15.4869 68.8596 15.4964 68.8147 15.5035Z" fill="var(--fill-0, #F57F20)"/>
<path d="M67.3688 10.0453L55.9177 16.5L66.3087 8.42944C66.5123 8.28405 66.7639 8.22357 67.0108 8.26067C67.2577 8.29777 67.4807 8.42957 67.6332 8.62847C67.7857 8.82736 67.8557 9.07791 67.8287 9.32762C67.8017 9.57734 67.6797 9.80685 67.4882 9.96805C67.4509 9.99742 67.4109 10.0233 67.3688 10.0453Z" fill="var(--fill-0, #F57F20)"/>
<path d="M64.8229 5.32742L55.9177 15.5834L63.2161 4.15531C63.2846 4.04055 63.3757 3.9406 63.4838 3.86139C63.592 3.78219 63.7151 3.72534 63.8459 3.69422C63.9766 3.6631 64.1123 3.65835 64.2449 3.68024C64.3776 3.70213 64.5044 3.75021 64.618 3.82165C64.7315 3.89308 64.8294 3.98641 64.9059 4.09609C64.9824 4.20578 65.036 4.32959 65.0633 4.46018C65.0907 4.59077 65.0914 4.72549 65.0653 4.85634C65.0392 4.98719 64.9869 5.11151 64.9115 5.22193C64.8849 5.25124 64.8524 5.29226 64.8229 5.32742Z" fill="var(--fill-0, #F57F20)"/>
<path d="M58.6112 3.12237L54.0823 15.5833L56.8129 2.5742C56.8727 2.32724 57.0222 2.11421 57.2299 1.98015C57.4376 1.84609 57.6871 1.80152 57.9257 1.85586C58.1643 1.91019 58.3733 2.05918 58.5085 2.27132C58.6436 2.48345 58.6944 2.74209 58.65 2.99254C58.6389 3.03005 58.6251 3.0791 58.6112 3.12237Z" fill="var(--fill-0, #F57F20)"/>
<path d="M53.157 1.86858L53.0051 14.6666L51.3374 1.9822C51.3213 1.85974 51.3291 1.73525 51.3601 1.61584C51.3912 1.49643 51.4449 1.38444 51.5183 1.28626C51.5917 1.18808 51.6834 1.10564 51.7879 1.04365C51.8925 0.981652 52.008 0.941314 52.1278 0.924937C52.2477 0.908559 52.3695 0.916464 52.4863 0.948199C52.6032 0.979934 52.7128 1.03488 52.8088 1.10989C52.9049 1.18491 52.9856 1.27853 53.0462 1.3854C53.1069 1.49228 53.1464 1.61032 53.1624 1.73278C53.1632 1.77812 53.1614 1.82346 53.157 1.86858Z" fill="var(--fill-0, #F57F20)"/>
<path d="M47.75 3.32805L52.2459 15.5832L45.9127 4.08697C45.8115 3.86582 45.802 3.61645 45.886 3.38889C45.97 3.16133 46.1413 2.9724 46.3656 2.86001C46.5898 2.74761 46.8505 2.72007 47.0952 2.7829C47.3399 2.84572 47.5506 2.99428 47.685 3.19875C47.7105 3.24005 47.7322 3.2833 47.75 3.32805Z" fill="var(--fill-0, #F57F20)"/>
</g>
<g id="Vector_2">
<path d="M2.03948 2.15914C1.30946 6.8273 -2.59139 34.085 2.83359 42.7887C3.15349 43.324 3.65892 43.7191 4.25102 43.8967C4.84312 44.0743 5.47928 44.0216 6.03507 43.7489C6.61575 43.4621 7.06133 42.9547 7.27499 42.3369C10.3845 33.3308 14.3592 24.6561 19.142 16.4375C26.431 4.01172 29.0752 1.97558 26.5898 0.501427C25.1186 -0.0859753 25.0323 -0.133983 24.7063 0.235968C24.3803 0.605918 8.63193 23.5965 5.54747 34.0059C5.54747 34.0059 5.19082 33.6021 5.24655 29.0921C5.30227 24.5821 7.35022 4.64148 5.74251 2.4359C5.02085 1.58869 3.81437 1.34017 2.98962 1.33735C2.76032 1.33601 2.53819 1.41829 2.36376 1.56915C2.18933 1.72002 2.07424 1.92942 2.03948 2.15914Z" fill="var(--fill-0, white)"/>
<path d="M38.723 11.2743C38.723 11.2743 37.2006 10.352 36.1932 11.8892C35.1858 13.4265 28.9765 22.6558 31.9759 27.2078C32.0892 27.3714 32.2188 27.5231 32.3629 27.6604C33.7857 29.0468 34.5057 29.7272 36.253 27.9764C38.0856 26.1374 40.9199 21.8672 41.4891 21.4288C41.1135 23.0942 39.9752 28.207 42.5505 30.2738C44.5226 31.8054 44.8271 31.2389 46.2841 29.5422C47.6586 27.9309 52.9773 21.5313 54.901 17.449C55.0008 17.2409 55.0245 17.0044 54.9678 16.7807C54.9111 16.557 54.7777 16.3602 54.5908 16.2249C54.2692 16 53.8765 15.8292 53.5407 15.9402C52.8947 16.1765 45.7036 26.8007 44.2295 27.6946C44.7674 24.7453 45.3393 21.7477 48.4981 14.4741C48.5821 14.2793 48.6219 14.0684 48.6148 13.8564C48.5721 12.5013 48.3501 11.9149 46.0878 11.8636C45.9431 11.859 45.7991 11.8865 45.6663 11.9441C45.5335 12.0017 45.415 12.0879 45.3194 12.1967C43.9791 13.7368 39.5682 19.883 35.1915 24.4066C35.8716 21.9726 37.7014 16.6661 40.0122 13.2842C40.3195 12.5924 40.0634 11.7241 38.723 11.2743Z" fill="var(--fill-0, white)"/>
<path d="M28.8205 10.1217C28.8205 10.1217 27.8294 9.89439 27.4387 10.5454C27.0882 11.1319 19.895 21.5121 21.2567 28.4463C21.3865 29.1847 21.7034 29.8797 22.1786 30.4679C22.6537 31.0561 23.272 31.5188 23.9771 31.8137C24.8562 32.1589 25.7266 32.2178 26.2494 31.7211C27.1974 30.8175 36.2637 18.762 36.6687 16.0063C36.1344 15.4451 35.3702 14.7014 33.8391 16.677C32.7187 18.1222 25.5887 27.4108 24.9797 28.4407C25.5054 25.5671 24.9079 22.6879 31.2623 12.5491C31.8368 11.9289 31.3427 11.2245 30.5757 10.8485C30.0043 10.5759 29.4184 10.3333 28.8205 10.1217Z" fill="var(--fill-0, white)"/>
<path d="M33.7148 0.110618C33.2337 -0.0517299 32.7113 -0.03492 32.2413 0.158038C31.7712 0.350997 31.3842 0.7075 31.1495 1.16371C29.9787 3.2814 27.4644 7.53117 28.7853 8.64468C29.4442 9.23378 30.1867 9.71877 30.9879 10.0833C30.9879 10.0833 30.5088 7.74121 36.3936 2.40958C36.8415 1.75643 36.833 1.16371 35.5432 0.71485C34.2534 0.265991 33.7148 0.110618 33.7148 0.110618Z" fill="var(--fill-0, white)"/>
<path d="M69.6636 37.528L62.5818 36.6119C60.2119 36.3644 57.8448 36.1259 55.4805 35.8965L51.9228 35.6444C50.737 35.5658 49.5567 35.4547 48.368 35.4222L44.8104 35.2758L43.923 35.2379C43.6273 35.2379 43.3315 35.2379 43.0329 35.2379L39.4809 35.2C39.1851 35.2 38.8893 35.2 38.5936 35.2L34.1598 35.2948L30.6245 35.4791C30.0357 35.5035 29.4497 35.5631 28.8638 35.6119L27.1059 35.7664C26.8268 35.7935 26.5199 35.8125 26.2297 35.845L23.6124 36.1621L23.1743 36.219L22.7418 36.284L21.8769 36.4222L21.0119 36.555C20.7328 36.5984 20.4371 36.6472 20.1524 36.7041L18.4448 37.032C17.8867 37.154 17.3287 37.303 16.7706 37.4142C16.4916 37.4738 16.2125 37.5578 15.9335 37.6283C15.6545 37.6987 15.3754 37.7719 15.1132 37.8505L14.3151 38.0971C14.184 38.1378 14.064 38.1811 13.9384 38.2245L13.7515 38.2895L13.6092 38.3465L13.5534 38.3681C13.0964 38.5478 12.5847 38.5439 12.1307 38.3571C11.6768 38.1703 11.3178 37.816 11.1328 37.3722C10.9478 36.9283 10.9519 36.4313 11.1442 35.9903C11.3365 35.5494 11.7013 35.2008 12.1582 35.0211L12.2754 34.9804L12.5544 34.891L12.7944 34.826C12.9507 34.7826 13.1125 34.7338 13.2688 34.6959L14.1924 34.4736C14.4993 34.4059 14.8006 34.3517 15.1076 34.2866C15.4145 34.2216 15.7159 34.1565 16.02 34.1132C16.6283 34.0156 17.2338 33.9099 17.8393 33.8205L19.6586 33.5847C19.9599 33.544 20.2641 33.5142 20.5682 33.4871L21.475 33.4058L22.3819 33.3218L22.8339 33.2785L23.2887 33.2513L25.1024 33.1456L26.0093 33.0942C26.3106 33.0942 26.612 33.0779 26.9133 33.0671L28.7243 33.0264C29.327 33.0101 29.9297 32.9912 30.5324 33.0047L34.1402 33.0427L38.641 33.2297C38.9396 33.2432 39.2381 33.273 39.5395 33.292L41.3308 33.4221L43.1222 33.5549C43.4208 33.5793 43.7194 33.5955 44.0179 33.6254L44.9108 33.7175L48.4796 34.0915C49.6711 34.1999 50.8514 34.3869 52.0372 34.5387L55.5865 35.0184C57.9415 35.4014 60.2947 35.7899 62.646 36.1837L69.6636 37.528Z" fill="var(--fill-0, white)"/>
</g>
</g>
</svg>
